<?xml version="1.0" standalone="no"?>
<!DOCTYPE svg PUBLIC "-//W3C//DTD SVG 20010904//EN"
 "http://www.w3.org/TR/2001/REC-SVG-20010904/DTD/svg10.dtd">
<svg version="1.0" xmlns="http://www.w3.org/2000/svg"
 width="480.000000pt" height="480.000000pt" viewBox="0 0 480.000000 480.000000"
 preserveAspectRatio="xMidYMid meet">
<metadata>
Created by potrace 1.11, written by Peter Selinger 2001-2013
</metadata>
<g transform="translate(0.000000,480.000000) scale(0.100000,-0.100000)"
fill="#000000" stroke="none">
<path d="M15 4690 c-27 -30 -13 -59 62 -125 l68 -61 33 37 32 37 -71 66 c-39
36 -79 66 -89 66 -9 0 -25 -9 -35 -20z"/>
<path d="M295 4428 c-180 -197 -220 -246 -218 -267 3 -34 55 -136 70 -136 15
0 544 577 540 589 -5 16 -107 55 -142 55 -26 0 -57 -30 -250 -241z"/>
<path d="M512 4235 c-150 -162 -272 -298 -272 -302 0 -14 107 -116 118 -112 7
3 331 352 536 577 l21 23 -57 55 c-31 30 -60 54 -66 54 -5 0 -131 -133 -280
-295z"/>
<path d="M755 4074 c-99 -108 -194 -213 -212 -233 l-32 -38 82 19 c122 26 114
31 119 -69 5 -101 26 -151 87 -212 62 -62 122 -86 216 -86 44 0 91 3 105 7 25
7 26 5 43 -61 20 -77 30 -91 67 -91 55 0 62 34 30 149 -19 66 -19 76 -6 89 13
13 25 13 102 -1 79 -15 91 -15 111 -1 26 16 32 65 11 82 -7 5 -46 15 -85 22
-71 13 -72 14 -65 39 14 49 6 144 -16 193 -29 67 -102 141 -165 169 -54 23
-156 31 -208 17 l-25 -7 7 72 c5 40 11 87 14 105 3 17 5 32 3 32 -2 0 -84 -89
-183 -196z"/>
<path d="M1870 3278 l0 -393 -277 -165 c-153 -90 -305 -181 -338 -201 l-60
-36 -5 -397 -5 -396 -334 -193 c-183 -106 -333 -197 -333 -201 0 -5 39 -31 86
-59 l85 -49 343 199 343 198 2 399 2 399 327 188 c179 104 333 194 340 200 12
9 14 81 14 400 l0 389 -37 23 c-21 13 -64 39 -95 56 l-58 33 0 -394z"/>
<path d="M3240 3278 l0 -393 -337 -201 -338 -201 -3 -395 -2 -395 -345 -199
-345 -199 -2 -395 -3 -394 -316 -186 c-173 -102 -326 -192 -338 -200 -22 -15
-20 -16 69 -67 l90 -52 343 198 342 197 3 395 3 394 122 71 c67 39 220 128
340 199 l217 128 0 396 0 397 345 199 345 199 0 396 0 395 -87 50 c-47 28 -90
52 -95 53 -4 2 -8 -173 -8 -390z"/>
<path d="M4620 3271 l0 -389 -342 -200 -343 -199 -3 -396 -2 -395 -345 -199
-344 -198 -1 -395 -1 -395 -340 -199 -340 -199 28 -16 c15 -10 57 -34 93 -53
l65 -36 340 197 340 196 5 399 5 398 338 195 337 195 0 396 0 397 345 199 345
200 0 396 0 395 -81 48 c-45 26 -85 47 -90 47 -5 0 -9 -171 -9 -389z"/>
<path d="M911 3214 c-61 -51 -26 -144 54 -144 79 0 112 84 56 141 -36 36 -70
37 -110 3z"/>
<path d="M3715 3228 c-32 -17 -45 -39 -45 -78 0 -46 33 -80 77 -80 45 0 62 9
78 41 22 42 18 67 -14 100 -31 30 -62 36 -96 17z"/>
<path d="M1639 2361 c-32 -33 -36 -58 -14 -100 39 -76 155 -43 155 44 0 79
-84 112 -141 56z"/>
<path d="M3024 2378 c-48 -23 -57 -92 -18 -132 55 -55 144 -18 144 59 0 66
-64 103 -126 73z"/>
<path d="M4620 898 l0 -393 -340 -195 c-187 -107 -339 -198 -340 -202 0 -3 39
-29 87 -56 l88 -51 55 32 c31 18 185 106 343 197 l286 165 1 396 0 397 -67 39
c-38 22 -78 46 -90 52 l-23 12 0 -393z"/>
<path d="M903 710 c-29 -12 -56 -66 -49 -96 16 -62 102 -87 143 -41 30 33 34
54 18 93 -19 46 -63 64 -112 44z"/>
<path d="M3665 709 c-32 -19 -45 -41 -45 -79 0 -61 62 -98 125 -74 19 8 45 55
45 83 0 50 -80 95 -125 70z"/>
<path d="M1145 488 c-78 -45 -49 -158 40 -158 79 0 112 84 56 141 -31 30 -63
36 -96 17z"/>
</g>
</svg>
